<svg width="24" height="24" viewBox="0 0 24 24" fill="none" xmlns="http://www.w3.org/2000/svg">
<path d="M5.56086 5.16498L11.1149 8.86798C11.3889 9.05056 11.6136 9.29797 11.769 9.58825C11.9244 9.87853 12.0058 10.2027 12.0059 10.532V20.997C12.0059 21.178 11.9568 21.3557 11.8637 21.511C11.7707 21.6663 11.6373 21.7934 11.4776 21.8789C11.318 21.9643 11.1382 22.0047 10.9573 21.9959C10.7765 21.9872 10.6015 21.9295 10.4509 21.829L4.89686 18.127C4.6227 17.9443 4.39791 17.6967 4.24247 17.4063C4.08703 17.1158 4.00576 16.7914 4.00586 16.462V5.99698C4.00583 5.81593 4.05495 5.63828 4.14799 5.48297C4.24102 5.32765 4.37446 5.20051 4.53409 5.1151C4.69372 5.02969 4.87355 4.98922 5.05438 4.998C5.23521 5.00679 5.41026 5.0645 5.56086 5.16498ZM8.53386 3.11498C8.69353 3.02954 8.8734 2.98906 9.05428 2.99787C9.23515 3.00668 9.41024 3.06443 9.56086 3.16498L15.1149 6.86798C15.3889 7.05056 15.6136 7.29797 15.769 7.58825C15.9244 7.87853 16.0058 8.2027 16.0059 8.53198V18.997C16.0059 19.178 15.9568 19.3557 15.8637 19.511C15.7707 19.6663 15.6373 19.7934 15.4776 19.8789C15.318 19.9643 15.1382 20.0047 14.9573 19.9959C14.7765 19.9872 14.6015 19.9295 14.4509 19.829L13.5059 19.199V10.532C13.5058 9.95577 13.3634 9.38849 13.0915 8.8805C12.8195 8.37251 12.4263 7.93953 11.9469 7.61998L8.00586 4.99198V3.99698C8.00579 3.81594 8.05486 3.63827 8.14785 3.48294C8.24084 3.3276 8.37425 3.20043 8.53386 3.11498ZM13.5609 1.16498L19.1149 4.86798C19.3889 5.05056 19.6136 5.29797 19.769 5.58825C19.9244 5.87853 20.0058 6.2027 20.0059 6.53198V16.997C20.0059 17.178 19.9568 17.3557 19.8637 17.511C19.7707 17.6663 19.6373 17.7934 19.4776 17.8789C19.318 17.9643 19.1382 18.0047 18.9573 17.9959C18.7765 17.9872 18.6015 17.9295 18.4509 17.829L17.5059 17.199V8.53198C17.5058 7.95577 17.3634 7.38849 17.0915 6.8805C16.8195 6.37251 16.4263 5.93953 15.9469 5.61998L12.0059 2.99198V1.99698C12.0058 1.81593 12.055 1.63828 12.148 1.48297C12.241 1.32765 12.3745 1.20051 12.5341 1.1151C12.6937 1.02969 12.8735 0.98922 13.0544 0.998004C13.2352 1.00679 13.4103 1.0645 13.5609 1.16498Z" fill="#F0D655"/>
</svg>
