<svg width="24" height="24" viewBox="0 0 24 24" fill="none" xmlns="http://www.w3.org/2000/svg">
<path fill-rule="evenodd" clip-rule="evenodd" d="M4.80156 4.79999C4.80156 4.16347 5.05442 3.55302 5.50451 3.10294C5.95459 2.65285 6.56504 2.39999 7.20156 2.39999H16.8016C17.4381 2.39999 18.0485 2.65285 18.4986 3.10294C18.9487 3.55302 19.2016 4.16347 19.2016 4.79999V19.2C19.5198 19.2 19.825 19.3264 20.0501 19.5515C20.2751 19.7765 20.4016 20.0817 20.4016 20.4C20.4016 20.7183 20.2751 21.0235 20.0501 21.2485C19.825 21.4736 19.5198 21.6 19.2016 21.6H15.6016C15.2833 21.6 14.9781 21.4736 14.753 21.2485C14.528 21.0235 14.4016 20.7183 14.4016 20.4V18C14.4016 17.6817 14.2751 17.3765 14.0501 17.1515C13.825 16.9264 13.5198 16.8 13.2016 16.8H10.8016C10.4833 16.8 10.1781 16.9264 9.95303 17.1515C9.72799 17.3765 9.60156 17.6817 9.60156 18V20.4C9.60156 20.7183 9.47513 21.0235 9.25009 21.2485C9.02505 21.4736 8.71982 21.6 8.40156 21.6H4.80156C4.4833 21.6 4.17808 21.4736 3.95303 21.2485C3.72799 21.0235 3.60156 20.7183 3.60156 20.4C3.60156 20.0817 3.72799 19.7765 3.95303 19.5515C4.17808 19.3264 4.4833 19.2 4.80156 19.2V4.79999ZM8.40156 5.99999H10.8016V8.39999H8.40156V5.99999ZM10.8016 10.8H8.40156V13.2H10.8016V10.8ZM13.2016 5.99999H15.6016V8.39999H13.2016V5.99999ZM15.6016 10.8H13.2016V13.2H15.6016V10.8Z" fill="#F0D655"/>
</svg>
