<svg width="32" height="32" viewBox="0 0 32 32" fill="none" xmlns="http://www.w3.org/2000/svg">
<path fill-rule="evenodd" clip-rule="evenodd" d="M10.6611 26.6719L19.9944 17.3345C20.7004 16.629 21.0972 15.672 21.0976 14.6739C21.098 13.6759 20.7019 12.7185 19.9964 12.0125C19.2909 11.3065 18.3339 10.9097 17.3358 10.9093C16.3377 10.9089 15.3804 11.305 14.6744 12.0105L5.33172 21.3399C4.98153 21.6898 4.70369 22.1053 4.51406 22.5626C4.32444 23.0199 4.22675 23.51 4.22656 24.0051C4.22638 24.5002 4.3237 24.9904 4.51298 25.4479C4.70226 25.9053 4.97979 26.321 5.32972 26.6712C5.67965 27.0214 6.09513 27.2992 6.55243 27.4888C7.00973 27.6785 7.49991 27.7762 7.99497 27.7763C8.49003 27.7765 8.98028 27.6792 9.43773 27.4899C9.89517 27.3006 10.3109 27.0218 10.6611 26.6719ZM14.6624 14.6719L17.3291 17.3385L18.6624 16.0052C18.8375 15.8301 18.9764 15.6222 19.0711 15.3935C19.1659 15.1647 19.2147 14.9195 19.2147 14.6719C19.2147 14.4242 19.1659 14.179 19.0711 13.9503C18.9764 13.7215 18.8375 13.5136 18.6624 13.3385C18.4873 13.1634 18.2794 13.0245 18.0506 12.9298C17.8219 12.835 17.5767 12.7862 17.3291 12.7862C17.0814 12.7862 16.8362 12.835 16.6075 12.9298C16.3787 13.0245 16.1708 13.1634 15.9957 13.3385L14.6624 14.6719Z" fill="#F0D655"/>
<path d="M14.6624 14.6719L17.3291 17.3385L18.6624 16.0052C18.8375 15.8301 18.9764 15.6222 19.0711 15.3935C19.1659 15.1647 19.2147 14.9195 19.2147 14.6719C19.2147 14.4242 19.1659 14.179 19.0711 13.9503C18.9764 13.7215 18.8375 13.5136 18.6624 13.3385C18.4873 13.1634 18.2794 13.0245 18.0506 12.9298C17.8219 12.835 17.5767 12.7862 17.3291 12.7862C17.0814 12.7862 16.8362 12.835 16.6075 12.9298C16.3787 13.0245 16.1708 13.1634 15.9957 13.3385L14.6624 14.6719Z" fill="#F0D655"/>
<path d="M9.00868 6.53187C9.09668 6.20254 9.56334 6.20254 9.65134 6.53187L10.13 8.30254C10.1452 8.35874 10.1749 8.40998 10.2161 8.45115C10.2572 8.49232 10.3085 8.52199 10.3647 8.5372L12.1353 9.01454C12.4647 9.10254 12.4647 9.56921 12.1353 9.65721L10.3633 10.1359C10.3071 10.1511 10.2559 10.1808 10.2147 10.2219C10.1736 10.2631 10.1439 10.3143 10.1287 10.3705L9.65001 12.1399C9.56201 12.4692 9.09534 12.4692 9.00734 12.1399L8.53001 10.3692C8.5148 10.313 8.48513 10.2618 8.44396 10.2206C8.40279 10.1794 8.35155 10.1498 8.29534 10.1345L6.52334 9.65721C6.19534 9.56921 6.19534 9.10254 6.52334 9.01454L8.29668 8.53587C8.35288 8.52066 8.40412 8.49099 8.44529 8.44982C8.48646 8.40865 8.51613 8.35741 8.53134 8.3012L9.00868 6.53187ZM22.342 5.19854C22.43 4.8692 22.8967 4.8692 22.9847 5.19854L23.462 6.9692C23.4772 7.02541 23.5069 7.07665 23.5481 7.11782C23.5892 7.15899 23.6405 7.18866 23.6967 7.20387L25.4673 7.6812C25.7967 7.7692 25.7967 8.23587 25.4673 8.32387L23.6967 8.8012C23.6405 8.81642 23.5892 8.84609 23.5481 8.88726C23.5069 8.92843 23.4772 8.97967 23.462 9.03587L22.9847 10.8065C22.8967 11.1359 22.43 11.1359 22.342 10.8065L21.8633 9.03587C21.848 8.97951 21.8181 8.92816 21.7767 8.88698C21.7353 8.84579 21.6838 8.81621 21.6273 8.8012L19.8567 8.32387C19.5287 8.23587 19.5287 7.7692 19.8567 7.6812L21.6273 7.20387C21.6838 7.18886 21.7353 7.15928 21.7767 7.1181C21.8181 7.07691 21.848 7.02557 21.8633 6.9692L22.342 5.19854ZM23.6753 17.1985C23.7633 16.8692 24.23 16.8692 24.318 17.1985L24.7953 18.9692C24.8106 19.0254 24.8402 19.0766 24.8814 19.1178C24.9226 19.159 24.9738 19.1887 25.03 19.2039L26.8007 19.6812C27.13 19.7692 27.13 20.2359 26.8007 20.3239L25.03 20.8012C24.9738 20.8164 24.9226 20.8461 24.8814 20.8873C24.8402 20.9284 24.8106 20.9797 24.7953 21.0359L24.318 22.8065C24.23 23.1359 23.7633 23.1359 23.6753 22.8065L23.198 21.0359C23.1827 20.9795 23.1528 20.9282 23.1114 20.887C23.07 20.8458 23.0185 20.8162 22.962 20.8012L21.1913 20.3239C20.8633 20.2359 20.8633 19.7692 21.1913 19.6812L22.962 19.2039C23.0185 19.1889 23.07 19.1593 23.1114 19.1181C23.1528 19.0769 23.1827 19.0256 23.198 18.9692L23.6753 17.1985Z" fill="#F0D655"/>
</svg>
