<svg width="22" height="32" viewBox="0 0 22 32" fill="none" xmlns="http://www.w3.org/2000/svg">
<g clip-path="url(#clip0_5030_46319)">
<path d="M5.66732 31.9999C8.61132 31.9999 11.0007 29.6106 11.0007 26.6666V21.3333H5.66732C2.72332 21.3333 0.333984 23.7226 0.333984 26.6666C0.333984 29.6106 2.72332 31.9999 5.66732 31.9999Z" fill="#0ACF83"/>
<path d="M0.333984 16.0001C0.333984 13.0561 2.72332 10.6667 5.66732 10.6667H11.0007V21.3334H5.66732C2.72332 21.3334 0.333984 18.9441 0.333984 16.0001Z" fill="#A259FF"/>
<path d="M0.333984 5.33333C0.333984 2.38933 2.72332 0 5.66732 0H11.0007V10.6667H5.66732C2.72332 10.6667 0.333984 8.27733 0.333984 5.33333Z" fill="#F24E1E"/>
<path d="M11 0H16.3333C19.2773 0 21.6667 2.38933 21.6667 5.33333C21.6667 8.27733 19.2773 10.6667 16.3333 10.6667H11V0Z" fill="#FF7262"/>
<path d="M21.6667 16.0001C21.6667 18.9441 19.2773 21.3334 16.3333 21.3334C13.3893 21.3334 11 18.9441 11 16.0001C11 13.0561 13.3893 10.6667 16.3333 10.6667C19.2773 10.6667 21.6667 13.0561 21.6667 16.0001Z" fill="#1ABCFE"/>
</g>
<defs>
<clipPath id="clip0_5030_46319">
<rect width="21.3333" height="32" fill="white" transform="translate(0.333984)"/>
</clipPath>
</defs>
</svg>
